<?xml version="1.0" standalone="no"?><!DOCTYPE svg PUBLIC "-//W3C//DTD SVG 1.1//EN" "http://www.w3.org/Graphics/SVG/1.1/DTD/svg11.dtd"><svg t="1537953706087" class="icon" style="" viewBox="0 0 1024 1024" version="1.1" xmlns="http://www.w3.org/2000/svg" p-id="8672" xmlns:xlink="http://www.w3.org/1999/xlink" width="64" height="64"><defs><style type="text/css"></style></defs><path d="M994.112 994.112c-37.504 37.504-98.24 37.504-135.744 0l-225.024-224.96C569.984 808.32 496 832 416 832 186.24 832 0 645.76 0 416S186.24 0 416 0 832 186.24 832 416c0 80-23.68 153.984-62.784 217.408l224.96 224.96C1031.616 895.872 1031.616 956.608 994.112 994.112zM416 128C256.96 128 128 256.96 128 416S256.96 704 416 704 704 575.04 704 416 575.04 128 416 128zM576 384l0 64L256 448 256 384 576 384z" p-id="8673" fill="#000000"></path></svg>