<?xml version="1.0" standalone="no"?><!DOCTYPE svg PUBLIC "-//W3C//DTD SVG 1.1//EN" "http://www.w3.org/Graphics/SVG/1.1/DTD/svg11.dtd"><svg t="1537954324962" class="icon" style="" viewBox="0 0 1024 1024" version="1.1" xmlns="http://www.w3.org/2000/svg" p-id="30850" xmlns:xlink="http://www.w3.org/1999/xlink" width="64" height="64"><defs><style type="text/css"></style></defs><path d="M384 563.2l-161.28 163.84-56.32-56.32c-12.8-12.8-25.6-25.6-38.4-25.6-15.36 0-25.6 12.8-25.6 25.6l0 220.16c0 7.68 2.56 15.36 7.68 20.48C117.76 916.48 122.88 921.6 130.56 921.6l220.16 0c15.36 0 25.6-12.8 25.6-25.6 0-15.36-17.92-30.72-25.6-38.4l-56.32-56.32L460.8 640 384 563.2zM921.6 130.56c0-7.68-2.56-15.36-10.24-20.48C906.24 107.52 901.12 102.4 890.88 102.4l-225.28 0c-15.36 0-25.6 12.8-25.6 28.16 0 15.36 17.92 30.72 25.6 38.4l56.32 56.32L563.2 384l76.8 76.8 158.72-158.72 56.32 56.32c12.8 12.8 25.6 25.6 38.4 25.6 15.36 0 28.16-12.8 25.6-28.16L921.6 130.56z" p-id="30851" fill="#000000"></path></svg>