<?xml version="1.0" standalone="no"?><!DOCTYPE svg PUBLIC "-//W3C//DTD SVG 1.1//EN" "http://www.w3.org/Graphics/SVG/1.1/DTD/svg11.dtd"><svg t="1537954197274" class="icon" style="" viewBox="0 0 1024 1024" version="1.1" xmlns="http://www.w3.org/2000/svg" p-id="28379" xmlns:xlink="http://www.w3.org/1999/xlink" width="64" height="64"><defs><style type="text/css"></style></defs><path d="M450.56 573.44c-5.12-5.12-12.8-7.68-20.48-7.68l-220.16 0c-15.36 0-25.6 12.8-25.6 25.6 0 15.36 17.92 30.72 25.6 38.4l56.32 56.32L102.4 844.8l76.8 76.8 161.28-163.84 56.32 56.32c12.8 12.8 25.6 25.6 38.4 25.6 15.36 0 25.6-12.8 25.6-25.6l0-220.16C460.8 583.68 455.68 578.56 450.56 573.44zM762.88 337.92 921.6 179.2l-76.8-76.8-158.72 158.72L629.76 204.8c-12.8-12.8-25.6-25.6-38.4-25.6C576 179.2 563.2 189.44 563.2 204.8l0 225.28c0 7.68 2.56 15.36 10.24 20.48 5.12 5.12 12.8 10.24 20.48 10.24l225.28 0c15.36 0 28.16-12.8 25.6-28.16 0-15.36-17.92-30.72-25.6-38.4L762.88 337.92z" p-id="28380" fill="#000000"></path></svg>